<svg xmlns="http://www.w3.org/2000/svg" viewBox="0 0 100 100">
  <defs>
    <linearGradient
      gradientTransform="rotate(25)"
      id="b3e25dd7-c0e4-4245-b79e-441be80177ac"
      x1="0%"
      y1="0%"
      x2="100%"
      y2="0%"
    >
      <stop offset="0%" style="stop-color: rgb(217, 70, 239); stop-opacity: 1"></stop>
      <stop offset="100%" style="stop-color: rgb(147, 51, 234); stop-opacity: 1"></stop>
    </linearGradient>
  </defs>

  <g stroke="none" fill="url(#b3e25dd7-c0e4-4245-b79e-441be80177ac)">
    <path
      d="M23.186 99.647H12.147c-1.1 0-2-.9-2-2V2.11c0-1.1.9-2 2-2h11.039c1.1 0 2 .9 2 2v95.536c0 1.101-.9 2.001-2 2.001zM40.093 99.647H29.209c-1.1 0-2-.9-2-2V16.179c0-1.1.9-2 2-2h10.884c1.1 0 2 .9 2 2v81.467c0 1.101-.9 2.001-2 2.001zM56.843 99.647H45.96c-1.1 0-2-.9-2-2V1.973c0-1.1.9-2 2-2h10.884c1.1 0 2 .9 2 2v95.674c-.001 1.1-.901 2-2.001 2zM93.137 96.569L82.71 99.688a2.006 2.006 0 0 1-2.489-1.343L60.01 30.786a2.006 2.006 0 0 1 1.343-2.489l10.427-3.119a2.006 2.006 0 0 1 2.489 1.343L94.48 94.08a2.006 2.006 0 0 1-1.343 2.489z"
    ></path>
  </g>
</svg>
