<?xml version="1.0" standalone="no"?>
<!DOCTYPE svg PUBLIC "-//W3C//DTD SVG 20010904//EN" "http://www.w3.org/TR/2001/REC-SVG-20010904/DTD/svg10.dtd">
<svg
  version="1.0"
  xmlns="http://www.w3.org/2000/svg"
  width="1024.000000pt"
  height="1024.000000pt"
  viewBox="0 0 1024.000000 1024.000000"
  preserveAspectRatio="xMidYMid meet"
>
  <g
    transform="translate(0.000000,1024.000000) scale(0.100000,-0.100000)"
    fill="#000000"
    stroke="none"
  >
    <path
      d="M4855 10172 c-1 -2 -40 -5 -86 -8 -91 -5 -145 -10 -224 -20 -27 -3
-63 -8 -80 -10 -16 -2 -46 -6 -65 -8 -19 -3 -44 -7 -55 -9 -11 -2 -42 -8 -68
-11 -27 -4 -57 -9 -68 -12 -10 -2 -29 -6 -41 -9 -13 -3 -35 -7 -50 -10 -15 -3
-58 -12 -95 -20 -37 -9 -81 -18 -98 -21 -16 -3 -38 -10 -47 -15 -10 -5 -18 -7
-18 -5 0 3 -12 1 -27 -5 -16 -6 -38 -13 -50 -15 -12 -2 -86 -25 -165 -51 -79
-26 -145 -47 -148 -48 -22 -4 -287 -110 -372 -149 -32 -15 -61 -27 -65 -28
-23 -5 -315 -160 -441 -235 -126 -74 -281 -175 -358 -232 -12 -9 -32 -23 -44
-31 -12 -8 -28 -20 -34 -25 -6 -6 -29 -24 -51 -40 -58 -42 -258 -210 -335
-279 -160 -146 -439 -442 -482 -511 -10 -16 -18 -26 -18 -21 0 5 -14 -11 -32
-35 -17 -24 -36 -47 -42 -51 -6 -4 -8 -8 -4 -8 3 0 -7 -14 -22 -30 -15 -17
-45 -55 -67 -86 -21 -31 -45 -66 -53 -78 -8 -12 -36 -51 -63 -88 -26 -36 -47
-69 -47 -72 0 -8 -38 -63 -58 -84 -6 -7 -12 -20 -12 -27 0 -7 -6 -20 -13 -27
-7 -7 -31 -44 -52 -83 -22 -38 -47 -83 -57 -100 -16 -27 -167 -332 -188 -380
-12 -26 -43 -99 -45 -105 -1 -3 -7 -18 -13 -33 -7 -16 -12 -30 -12 -33 0 -2
-9 -23 -19 -47 -10 -23 -31 -78 -46 -122 -15 -44 -30 -87 -33 -95 -3 -8 -6
-18 -7 -22 -2 -5 -4 -10 -5 -13 -1 -3 -3 -8 -5 -12 -1 -5 -4 -15 -7 -23 -15
-40 -75 -249 -82 -285 -1 -5 -5 -19 -9 -30 -3 -11 -9 -31 -11 -45 -3 -14 -11
-45 -17 -70 -6 -25 -12 -52 -14 -60 -1 -8 -5 -28 -8 -45 -12 -51 -17 -76 -37
-200 -23 -140 -32 -212 -46 -345 -12 -122 -15 -218 -15 -495 0 -305 5 -420 25
-580 3 -16 7 -55 11 -85 12 -101 19 -141 45 -275 11 -55 22 -113 25 -130 7
-41 12 -64 24 -102 5 -18 7 -33 4 -33 -3 0 -1 -6 4 -12 6 -7 11 -20 11 -28 1
-21 12 -72 18 -82 3 -4 7 -16 9 -25 2 -10 13 -49 25 -88 12 -38 23 -77 25 -85
2 -8 13 -42 25 -75 12 -33 23 -67 25 -76 2 -9 15 -46 29 -83 14 -36 37 -94 50
-129 14 -34 33 -80 42 -102 10 -22 18 -42 19 -45 3 -14 185 -388 205 -420 6
-8 38 -64 73 -125 70 -121 184 -295 264 -404 10 -14 35 -48 55 -75 20 -28 43
-58 51 -66 8 -8 31 -37 52 -65 20 -27 44 -57 51 -65 8 -8 24 -26 35 -40 42
-52 117 -134 194 -216 45 -46 79 -84 77 -84 -2 0 27 -27 65 -59 37 -33 75 -68
84 -78 9 -10 29 -29 45 -43 54 -47 232 -195 264 -220 17 -14 40 -32 50 -40 32
-25 121 -89 210 -151 47 -32 90 -63 97 -69 7 -5 15 -10 19 -10 3 0 26 -13 51
-30 24 -16 48 -30 54 -30 5 0 9 -3 9 -8 0 -4 15 -13 33 -21 17 -8 34 -17 37
-21 11 -15 313 -171 450 -233 129 -58 171 -77 175 -77 2 0 16 -5 32 -12 15 -6
30 -12 33 -13 3 -1 12 -5 20 -8 23 -10 154 -58 165 -61 20 -5 151 -48 170 -56
11 -4 54 -17 95 -29 71 -21 87 -25 135 -35 11 -3 58 -14 105 -25 47 -11 96
-22 110 -25 14 -3 36 -7 50 -10 63 -13 208 -38 240 -41 19 -2 49 -6 65 -9 47
-9 193 -24 305 -32 102 -7 607 -7 700 0 151 12 263 24 315 32 17 3 41 7 55 9
88 11 142 20 180 29 14 3 36 8 50 10 14 2 48 10 75 16 28 7 59 13 70 15 11 1
20 3 20 5 0 1 14 4 30 6 133 22 576 168 800 264 253 108 555 269 753 402 40
26 76 48 81 48 5 0 11 3 13 8 2 4 40 34 86 66 46 31 93 65 104 74 11 9 29 25
40 34 12 10 25 18 29 18 5 0 16 8 26 19 17 17 171 149 230 196 14 11 70 64
126 118 56 53 104 97 107 98 3 0 31 31 63 67 31 37 101 117 156 179 116 132
287 352 283 364 -1 5 2 9 7 9 5 0 20 17 32 38 13 20 29 43 36 50 7 7 13 17 13
22 0 5 6 15 13 22 16 17 139 211 172 274 14 26 29 52 34 58 5 6 31 54 57 106
27 52 53 98 57 101 5 3 7 8 6 10 -2 2 9 29 23 59 14 30 38 82 52 115 15 33 31
68 37 78 31 56 156 401 205 567 31 102 94 345 99 380 8 52 16 96 25 130 5 19
12 55 15 80 3 25 8 52 10 60 3 13 11 66 20 140 3 24 12 98 21 185 11 104 16
243 15 500 0 293 -5 404 -26 575 -3 25 -8 61 -10 80 -3 19 -6 46 -8 60 -2 14
-8 50 -12 80 -5 30 -9 57 -10 60 -1 3 -5 25 -10 50 -5 25 -9 47 -10 50 -1 3
-5 25 -9 50 -12 64 -13 70 -26 120 -6 25 -13 54 -14 65 -4 22 -25 101 -34 125
-3 8 -6 24 -7 35 -4 31 -126 398 -137 413 -6 6 -7 12 -4 12 4 0 1 10 -6 23 -7
12 -13 24 -13 27 -2 25 -133 322 -192 438 -24 46 -43 90 -43 97 0 7 -4 15 -8
17 -5 2 -26 35 -47 73 -21 39 -43 79 -49 90 -6 11 -13 22 -16 25 -3 3 -13 21
-24 40 -37 69 -198 312 -227 344 -11 11 -19 25 -19 32 0 7 -3 14 -7 16 -5 2
-28 30 -53 63 -24 33 -52 69 -62 80 -9 11 -41 49 -70 85 -29 36 -57 68 -63 72
-5 4 -7 8 -4 8 3 0 -16 24 -44 53 -27 28 -85 91 -128 139 -44 48 -79 86 -79
84 0 -1 -24 20 -53 48 -84 82 -167 158 -232 211 -33 28 -67 57 -75 66 -21 22
-210 166 -300 229 -347 241 -743 452 -1095 582 -119 44 -338 119 -355 122 -8
1 -22 5 -30 9 -8 3 -27 8 -42 11 -14 2 -36 9 -47 16 -12 6 -21 9 -21 6 0 -3
-15 0 -32 5 -18 6 -42 12 -53 14 -11 3 -91 20 -178 39 -87 19 -182 37 -210 41
-29 4 -61 8 -72 10 -86 14 -217 29 -365 40 -77 7 -619 12 -625 7z m738 -1922
c15 -7 38 -30 50 -49 l22 -36 1 -2970 c1 -2072 -2 -2976 -10 -2990 -5 -11 -9
-23 -8 -27 1 -4 -15 -17 -36 -30 -37 -23 -39 -23 -397 -24 -348 -1 -405 4
-430 31 -42 46 -40 -106 -41 3025 0 1631 3 2976 8 2990 14 42 42 70 80 83 54
19 722 16 761 -3z m-2062 -18 c69 -42 64 211 64 -3047 l0 -2960 -24 -39 c-13
-21 -38 -44 -55 -51 -23 -9 -128 -11 -396 -10 -391 1 -397 2 -435 53 -20 27
-20 43 -20 3007 0 2757 1 2982 17 3003 9 13 31 34 49 46 32 22 35 22 398 22
361 -1 367 -2 402 -24z m1043 -865 c15 -10 36 -37 45 -60 17 -40 18 -179 17
-2567 l-1 -2525 -24 -34 c-41 -57 -50 -58 -451 -57 -402 2 -392 0 -428 65 -19
35 -19 79 -17 2566 1 1392 4 2537 6 2545 8 27 33 57 62 71 23 12 93 15 395 14
340 0 370 -1 396 -18z m1975 -667 c17 -7 39 -26 50 -44 17 -27 77 -217 141
-446 10 -36 37 -126 60 -200 46 -148 108 -356 114 -380 2 -8 32 -107 66 -220
34 -113 74 -248 90 -300 15 -52 40 -135 56 -185 15 -49 29 -94 30 -100 1 -5
16 -57 34 -115 18 -58 33 -109 34 -115 2 -5 13 -44 25 -85 13 -41 23 -76 23
-77 -1 -2 5 -21 13 -43 8 -22 15 -44 16 -48 2 -10 6 -21 20 -67 7 -22 12 -44
11 -48 -1 -4 2 -16 7 -26 6 -10 12 -29 15 -42 3 -13 28 -98 56 -189 28 -91 60
-196 71 -235 12 -38 29 -97 40 -130 25 -82 160 -536 164 -555 2 -8 4 -16 5
-17 2 -2 3 -6 4 -10 1 -5 10 -35 21 -68 10 -33 19 -64 20 -70 2 -5 17 -57 35
-115 18 -58 33 -109 34 -115 1 -5 15 -50 30 -100 31 -100 38 -144 23 -162 -5
-7 -6 -13 -2 -13 3 0 -7 -14 -24 -30 -25 -25 -66 -42 -247 -96 -120 -37 -222
-67 -228 -69 -6 -1 -18 -5 -26 -8 -66 -25 -182 -56 -235 -62 -46 -5 -106 49
-121 111 -4 16 -9 34 -13 39 -3 6 -6 15 -7 20 -1 10 -17 62 -109 370 -13 44
-39 127 -56 185 -18 58 -34 110 -35 115 -1 6 -11 42 -24 80 -12 39 -23 77 -25
85 -2 8 -13 47 -25 85 -11 39 -23 81 -26 94 -3 14 -8 29 -12 35 -3 6 -7 16 -8
21 -2 14 -102 350 -121 405 -8 25 -16 52 -18 60 -2 8 -22 78 -45 155 -23 76
-43 144 -44 150 -1 5 -14 46 -28 90 -15 44 -29 91 -32 105 -2 14 -16 61 -30
105 -36 114 -79 258 -82 270 -1 6 -21 73 -44 150 -23 76 -43 144 -45 150 -1 5
-5 17 -8 25 -3 8 -16 49 -27 90 -12 41 -28 95 -37 120 -8 25 -16 52 -18 60 -2
9 -16 56 -31 105 -15 50 -29 99 -31 110 -2 11 -6 27 -10 35 -4 8 -8 22 -9 30
-2 8 -19 67 -39 130 -20 63 -39 126 -41 139 -3 14 -7 28 -10 33 -3 4 -7 16 -9
25 -3 10 -16 56 -30 103 -15 47 -39 128 -55 180 -16 52 -35 115 -42 140 -29
94 -2 171 71 198 23 9 254 78 291 88 43 10 342 103 346 107 8 7 62 0 93 -13z"
    />
  </g>
</svg>
